<?xml version="1.0" encoding="UTF-8"?>
<svg width="10px" height="17px" viewBox="0 0 10 17" version="1.1" xmlns="http://www.w3.org/2000/svg" xmlns:xlink="http://www.w3.org/1999/xlink">
    <!-- Generator: Sketch 63.1 (92452) - https://sketch.com -->
    <title>Path 2</title>
    <desc>Created with Sketch.</desc>
    <g id="Lösungen" stroke="none" stroke-width="1" fill="none" fill-rule="evenodd">
        <g id="RUZ-Website_Screnndesign_Loesungen_v2_360px" transform="translate(-266.000000, -1602.000000)" fill="#FFFFFF" fill-rule="nonzero">
            <g id="Teaserstripe" transform="translate(0.000000, 1414.000000)">
                <g id="visual-01" transform="translate(182.000000, 0.000000)">
                    <g id="Btn" transform="translate(89.500000, 196.500000) rotate(-90.000000) translate(-89.500000, -196.500000) translate(72.000000, 179.000000)">
                        <path d="M9.79289322,12.799792 C10.1628636,12.4211074 10.7506057,12.4011766 11.1434994,12.7399997 L11.2071068,12.799792 L17.5,19.2406141 L23.7928932,12.799792 C24.1628636,12.4211074 24.7506057,12.4011766 25.1434994,12.7399997 L25.2071068,12.799792 C25.5770772,13.1784766 25.5965493,13.7800623 25.2655232,14.1822102 L25.2071068,14.2473158 L18.5606602,21.050312 C17.9983052,21.6259126 17.1005237,21.6489367 16.5113346,21.1193841 L16.4393398,21.050312 L9.79289322,14.2473158 C9.40236893,13.8475931 9.40236893,13.1995146 9.79289322,12.799792 Z" id="Path-2"></path>
                    </g>
                </g>
            </g>
        </g>
    </g>
</svg>