<?xml version="1.0" encoding="UTF-8"?>
<svg width="26px" height="27px" viewBox="0 0 26 27" version="1.1" xmlns="http://www.w3.org/2000/svg" xmlns:xlink="http://www.w3.org/1999/xlink">
    <!-- Generator: Sketch 63.1 (92452) - https://sketch.com -->
    <title></title>
    <desc>Created with Sketch.</desc>
    <g id="Unternehmen" stroke="none" stroke-width="1" fill="none" fill-rule="evenodd">
        <g id="RUZ-Website_Screnndesign_Unternehmen_Team_v1_1440px" transform="translate(-547.000000, -2072.000000)" fill="#1878DE" fill-rule="nonzero">
            <g id="Team" transform="translate(-1.000000, 1498.000000)">
                <g id="Team2" transform="translate(166.000000, 470.000000)">
                    <g id="3col-Block" transform="translate(382.000000, 20.000000)">
                        <g id="teaser-3col">
                            <path d="M17.1428571,110.142857 L17.1428571,103.178571 C17.1428571,102.732143 17.2991071,102.352679 17.6116071,102.040179 C17.9241071,101.727679 18.3035714,101.571429 18.75,101.571429 L18.75,101.571429 L25.7142857,101.571429 L25.7142857,86.0357143 C25.7142857,85.5892857 25.5580357,85.2098214 25.2455357,84.8973214 C24.9330357,84.5848214 24.5535714,84.4285714 24.1071429,84.4285714 L24.1071429,84.4285714 L1.60714286,84.4285714 C1.16071429,84.4285714 0.78125,84.5848214 0.46875,84.8973214 C0.15625,85.2098214 0,85.5892857 0,86.0357143 L0,86.0357143 L0,108.535714 C0,108.982143 0.15625,109.361607 0.46875,109.674107 C0.78125,109.986607 1.16071429,110.142857 1.60714286,110.142857 L1.60714286,110.142857 L17.1428571,110.142857 Z M19.2857143,110.092634 C20.2008929,109.925223 20.9375,109.5625 21.4955357,109.004464 L21.4955357,109.004464 L24.5758929,105.924107 C25.1339286,105.366071 25.4966518,104.629464 25.6640625,103.714286 L25.6640625,103.714286 L19.2857143,103.714286 L19.2857143,110.092634 Z" id=""></path>
                        </g>
                    </g>
                </g>
            </g>
        </g>
    </g>
</svg>