<?xml version="1.0" encoding="UTF-8"?>
<svg width="66px" height="66px" viewBox="0 0 66 66" version="1.1" xmlns="http://www.w3.org/2000/svg" xmlns:xlink="http://www.w3.org/1999/xlink">
    <!-- Generator: Sketch 63.1 (92452) - https://sketch.com -->
    <title>Group 2</title>
    <desc>Created with Sketch.</desc>
    <g id="Home" stroke="none" stroke-width="1" fill="none" fill-rule="evenodd">
        <g id="RUZ-Website_Screnndesign_Home-v1_1440px" transform="translate(-348.000000, -1201.000000)">
            <g id="Grafik" transform="translate(49.000000, 815.000000)">
                <g id="Icon" transform="translate(287.000000, 374.000000)">
                    <g id="Group-2" transform="translate(0.647059, 0.647059)">
                        <path d="M44.3529412,12 C62.2209772,12 76.7058824,26.4849052 76.7058824,44.3529412 C76.7058824,62.2209772 62.2209772,76.7058824 44.3529412,76.7058824 C26.4849052,76.7058824 12,62.2209772 12,44.3529412 C12,26.4849052 26.4849052,12 44.3529412,12 Z" id="Rectangle" fill="#1878DE" transform="translate(44.352941, 44.352941) rotate(28.000000) translate(-44.352941, -44.352941) "></path>
                        <g id="add" transform="translate(57.294118, 13.294118)">
                            <circle id="Oval" fill="#F4F4F4" cx="8.08823529" cy="8.08823529" r="8.08823529"></circle>
                            <path d="M9.06786628,7.27187614 C8.97770004,7.27187614 8.90459445,7.19877055 8.90459445,7.10860431 L8.90459445,3.51662404 L7.27187614,3.51662404 L7.27187614,7.10860431 C7.27187614,7.19877055 7.19877055,7.27187614 7.10860431,7.27187614 L3.51662404,7.27187614 L3.51662404,8.90459445 L7.10860431,8.90459445 C7.19877055,8.90459445 7.27187614,8.97770004 7.27187614,9.06786628 L7.27187614,12.6598465 L8.90459445,12.6598465 L8.90459445,9.06786628 C8.90459445,8.97770004 8.97770004,8.90459445 9.06786628,8.90459445 L12.6598465,8.90459445 L12.6598465,7.27187614 L9.06786628,7.27187614 Z" id="Path" fill="#1878DE" fill-rule="nonzero"></path>
                        </g>
                        <g id="Icon-Group-of-Person" transform="translate(25.352941, 31.352941)" stroke="#FFFFFF" stroke-width="2">
                            <path d="M26,6.49975636 C26,10.0895086 23.0895086,13 19.4997564,13 C15.9100041,13 13,10.0895086 13,6.49975636 C13,2.91000412 15.9100041,-2.27373675e-13 19.4997564,-2.27373675e-13 C23.0895086,-2.27373675e-13 26,2.91000412 26,6.49975636 Z" id="Stroke-1"></path>
                            <path d="M15,11 L11.9857585,14.0264842 C11.3536842,14.6606463 11,15.5120272 11,16.3988823 L11,29" id="path-3"></path>
                            <path d="M23.4676024,11 L25,12 L27.2609611,14.8583462 C27.734704,15.4572771 28,16.261359 28,17.0989444 L28,29" id="Stroke-6"></path>
                            <path d="M10,8.5 C10,10.9851936 7.9853211,13 5.50028472,13 C3.0146789,13 1,10.9851936 1,8.5 C1,6.01480638 3.0146789,4 5.50028472,4 C7.9853211,4 10,6.01480638 10,8.5 Z" id="Stroke-9"></path>
                            <path d="M2,12 L0.492892977,13.8492913 C0.176839465,14.2372966 0,14.7576448 0,15.2995488 L0,23" id="Stroke-11"></path>
                            <path d="M38,8.50028472 C38,10.9853211 35.9854486,13 33.5,13 C31.0145514,13 29,10.9853211 29,8.50028472 C29,6.0146789 31.0145514,4 33.5,4 C35.9854486,4 38,6.0146789 38,8.50028472 Z" id="Stroke-13"></path>
                            <path d="M37,12 L38.507004,13.8492913 C38.8231236,14.2367953 39,14.7571435 39,15.2995488 L39,23" id="Stroke-15"></path>
                        </g>
                    </g>
                </g>
            </g>
        </g>
    </g>
</svg>