<?xml version="1.0" encoding="UTF-8"?>
<svg width="18px" height="18px" viewBox="0 0 18 18" version="1.1" xmlns="http://www.w3.org/2000/svg" xmlns:xlink="http://www.w3.org/1999/xlink">
    <!-- Generator: Sketch 63.1 (92452) - https://sketch.com -->
    <title>ic-button</title>
    <desc>Created with Sketch.</desc>
    <g id="Home" stroke="none" stroke-width="1" fill="none" fill-rule="evenodd">
        <g id="RUZ-Website_Screnndesign_Home-v1_1440px" transform="translate(-1303.000000, -39.000000)" fill="#FFFFFF" fill-rule="nonzero">
            <g id="Header">
                <g id="00_ic-button-desktop" transform="translate(1288.000000, 24.000000)">
                    <g id="ic-button" fill="none">
                        <g id="button-icons/icon-search-inv" transform="translate(12.000000, 12.000000)" fill="#FFFFFF">
                            <path d="M9,3 C12.3137085,3 15,5.6862915 15,9 C15,9.83261767 14.8304039,10.6256241 14.5238724,11.3463586 L20.3419645,17.1646882 C21.2193452,18.0420689 21.2193452,19.4645839 20.3419645,20.3419645 C19.4645839,21.2193452 18.0420689,21.2193452 17.1646882,20.3419645 L11.3463586,14.5238724 C10.6256241,14.8304039 9.83261767,15 9,15 C5.6862915,15 3,12.3137085 3,9 C3,5.6862915 5.6862915,3 9,3 Z M9,4.5 C6.51471863,4.5 4.5,6.51471863 4.5,9 C4.5,11.4852814 6.51471863,13.5 9,13.5 C9.56300271,13.5 10.1094006,13.3972637 10.6207235,13.1997412 L10.7592917,13.1435273 L11.6910316,12.7472542 L18.2253484,19.2813044 C18.5169426,19.5728985 18.9897102,19.5728985 19.2813044,19.2813044 C19.5575515,19.0050572 19.5720908,18.5662057 19.3249039,18.2728239 L19.2812827,18.2253268 L12.7472542,11.6910316 L13.1435273,10.7592917 C13.3777353,10.2086084 13.5,9.61418477 13.5,9 C13.5,6.51471863 11.4852814,4.5 9,4.5 Z" id="Combined-Shape"></path>
                            <path d="M9,3 C12.3137085,3 15,5.6862915 15,9 C15,12.3137085 12.3137085,15 9,15 C5.6862915,15 3,12.3137085 3,9 C3,5.6862915 5.6862915,3 9,3 Z M9,4.5 C6.51471863,4.5 4.5,6.51471863 4.5,9 C4.5,11.4852814 6.51471863,13.5 9,13.5 C11.4852814,13.5 13.5,11.4852814 13.5,9 C13.5,6.51471863 11.4852814,4.5 9,4.5 Z" id="Rectangle"></path>
                        </g>
                    </g>
                </g>
            </g>
        </g>
    </g>
</svg>