<?xml version="1.0" encoding="UTF-8"?>
<svg width="44px" height="82px" viewBox="0 0 44 82" version="1.1" xmlns="http://www.w3.org/2000/svg" xmlns:xlink="http://www.w3.org/1999/xlink">
    <!-- Generator: Sketch 63.1 (92452) - https://sketch.com -->
    <title>Group</title>
    <desc>Created with Sketch.</desc>
    <g id="Lösungen" stroke="none" stroke-width="1" fill="none" fill-rule="evenodd">
        <g id="RUZ-Website_Screnndesign_Cert_Plus_v1_1440px" transform="translate(-318.000000, -2470.000000)" fill="#1878DE">
            <g id="Group" transform="translate(318.000000, 2470.000000)">
                <path d="M-13.5,35.5 L57.5,35.5 C59.1568542,35.5 60.5,36.8431458 60.5,38.5 C60.5,40.1568542 59.1568542,41.5 57.5,41.5 L-13.5,41.5 C-15.1568542,41.5 -16.5,40.1568542 -16.5,38.5 C-16.5,36.8431458 -15.1568542,35.5 -13.5,35.5 Z" id="Rectangle" transform="translate(22.000000, 38.500000) rotate(-270.000000) translate(-22.000000, -38.500000) "></path>
                <path d="M0.805456352,57.8327555 C1.8228749,56.7808538 3.43916562,56.7254906 4.51962334,57.6666658 L4.69454365,57.8327555 L22,75.7239281 L39.3054564,57.8327555 C40.3228749,56.7808538 41.9391656,56.7254906 43.0196233,57.6666658 L43.1945436,57.8327555 C44.2119622,58.8846573 44.2655105,60.5557286 43.3551887,61.6728061 L43.1945436,61.8536549 L24.9168155,80.7508667 C23.3703393,82.3497573 20.9014402,82.4137129 19.2811702,80.9427336 L19.0831845,80.7508667 L0.805456352,61.8536549 C-0.268485451,60.7433142 -0.268485451,58.9430962 0.805456352,57.8327555 Z" id="Path-2" fill-rule="nonzero"></path>
            </g>
        </g>
    </g>
</svg>