<?xml version="1.0" encoding="UTF-8"?>
<svg width="30px" height="31px" viewBox="0 0 30 31" version="1.1" xmlns="http://www.w3.org/2000/svg" xmlns:xlink="http://www.w3.org/1999/xlink">
    <!-- Generator: Sketch 63.1 (92452) - https://sketch.com -->
    <title></title>
    <desc>Created with Sketch.</desc>
    <g id="Unternehmen" stroke="none" stroke-width="1" fill="none" fill-rule="evenodd">
        <g id="RUZ-Website_Screnndesign_Unternehmen_Team_v1_1440px" transform="translate(-547.000000, -2369.000000)" fill="#1878DE" fill-rule="nonzero">
            <g id="Team" transform="translate(-1.000000, 1498.000000)">
                <g id="Team2" transform="translate(166.000000, 772.000000)">
                    <g id="3col-Block" transform="translate(382.000000, 20.000000)">
                        <g id="teaser-3col">
                            <path d="M27.3214286,109.285714 C28.0580357,109.285714 28.6886161,109.023438 29.2131696,108.498884 C29.7377232,107.97433 30,107.34375 30,106.607143 L30,106.607143 L30,90.234375 C30,90.0669643 29.9386161,89.9330357 29.8158482,89.8325893 C29.7265625,89.7544643 29.5089286,89.561942 29.1629464,89.2550223 C28.8169643,88.9481027 28.5853795,88.7472098 28.468192,88.6523438 C28.3510045,88.5574777 28.0970982,88.3482143 27.7064732,88.0245536 C27.3158482,87.7008929 26.9252232,87.391183 26.5345982,87.0954241 C26.1439732,86.7996652 25.6082589,86.3922991 24.9274554,85.8733259 C24.2466518,85.3543527 23.4458705,84.7572545 22.5251116,84.0820312 C21.6043527,83.406808 20.5301339,82.6227679 19.3024554,81.7299107 C19.2354911,81.6741071 18.9453125,81.4508929 18.4319196,81.0602679 C17.9185268,80.6696429 17.5223214,80.3794643 17.2433036,80.1897321 C16.9642857,80 16.6015625,79.8018973 16.1551339,79.5954241 C15.7087054,79.3889509 15.3236607,79.2857143 15,79.2857143 C14.6763393,79.2857143 14.2912946,79.3889509 13.8448661,79.5954241 C13.3984375,79.8018973 13.0412946,79.9972098 12.7734375,80.1813616 C12.5055804,80.3655134 12.1065848,80.6584821 11.5764509,81.0602679 C11.046317,81.4620536 10.7533482,81.6852679 10.6975446,81.7299107 C9.46986607,82.6227679 8.39564732,83.406808 7.47488839,84.0820312 C6.55412946,84.7572545 5.75334821,85.3543527 5.07254464,85.8733259 C4.39174107,86.3922991 3.85602679,86.7996652 3.46540179,87.0954241 C3.07477679,87.391183 2.68415179,87.7008929 2.29352679,88.0245536 C1.90290179,88.3482143 1.64899554,88.5574777 1.53180804,88.6523438 C1.41462054,88.7472098 1.18303571,88.9481027 0.837053571,89.2550223 C0.491071429,89.561942 0.2734375,89.7544643 0.184151786,89.8325893 C0.0613839286,89.9330357 0,90.0669643 0,90.234375 L0,90.234375 L0,106.607143 C0,107.34375 0.262276786,107.97433 0.786830357,108.498884 C1.31138393,109.023438 1.94196429,109.285714 2.67857143,109.285714 L2.67857143,109.285714 L27.3214286,109.285714 Z M15,102.857143 C14.5870536,102.857143 14.1657366,102.795759 13.7360491,102.672991 C13.3063616,102.550223 12.8738839,102.363281 12.4386161,102.112165 C12.0033482,101.861049 11.6462054,101.640625 11.3671875,101.450893 C11.0881696,101.261161 10.7254464,100.998884 10.2790179,100.664062 C9.83258929,100.329241 9.55357143,100.117188 9.44196429,100.027902 C6.50669643,97.8962054 4.58147321,96.4899554 3.66629464,95.8091518 C3.54352679,95.7198661 3.47377232,95.6054688 3.45703125,95.4659598 C3.44029018,95.3264509 3.4765625,95.1953125 3.56584821,95.0725446 L3.56584821,95.0725446 L4.20200893,94.2020089 C4.29129464,94.0792411 4.40848214,94.0094866 4.55357143,93.9927455 C4.69866071,93.9760045 4.83258929,94.0122768 4.95535714,94.1015625 C6.70758929,95.3962054 8.62165179,96.7912946 10.6975446,98.2868304 C10.7533482,98.3203125 11.0435268,98.5379464 11.5680804,98.9397321 C12.0926339,99.3415179 12.4916295,99.6344866 12.765067,99.8186384 C13.0385045,100.00279 13.3984375,100.198103 13.8448661,100.404576 C14.2912946,100.611049 14.6763393,100.714286 15,100.714286 C15.3236607,100.714286 15.7087054,100.611049 16.1551339,100.404576 C16.6015625,100.198103 16.9614955,100.00279 17.234933,99.8186384 C17.5083705,99.6344866 17.9073661,99.3415179 18.4319196,98.9397321 C18.9564732,98.5379464 19.2466518,98.3203125 19.3024554,98.2868304 C20.5524554,97.3828125 22.4665179,95.9877232 25.0446429,94.1015625 C25.1674107,94.0122768 25.3013393,93.9760045 25.4464286,93.9927455 C25.5915179,94.0094866 25.7087054,94.0792411 25.7979911,94.2020089 L25.7979911,94.2020089 L26.4341518,95.0725446 C26.5234375,95.1953125 26.5597098,95.3264509 26.5429688,95.4659598 C26.5262277,95.6054688 26.4564732,95.7198661 26.3337054,95.8091518 C25.4185268,96.4899554 23.4933036,97.8962054 20.5580357,100.027902 C20.4799107,100.083705 20.2120536,100.287388 19.7544643,100.638951 C19.296875,100.990513 18.9341518,101.25558 18.6662946,101.434152 C18.3984375,101.612723 18.0385045,101.833147 17.5864955,102.095424 C17.1344866,102.357701 16.6936384,102.550223 16.2639509,102.672991 C15.8342634,102.795759 15.4129464,102.857143 15,102.857143 Z" id=""></path>
                        </g>
                    </g>
                </g>
            </g>
        </g>
    </g>
</svg>