<?xml version="1.0" encoding="UTF-8"?>
<svg width="22px" height="27px" viewBox="0 0 22 27" version="1.1" xmlns="http://www.w3.org/2000/svg" xmlns:xlink="http://www.w3.org/1999/xlink">
    <!-- Generator: Sketch 63.1 (92452) - https://sketch.com -->
    <title></title>
    <desc>Created with Sketch.</desc>
    <g id="Unternehmen" stroke="none" stroke-width="1" fill="none" fill-rule="evenodd">
        <g id="RUZ-Website_Screnndesign_Unternehmen_Team_v1_1440px" transform="translate(-545.000000, -1769.000000)" fill="#1878DE" fill-rule="nonzero">
            <g id="Team" transform="translate(-1.000000, 1498.000000)">
                <g id="Team2" transform="translate(166.000000, 168.000000)">
                    <g id="3col-Block" transform="translate(380.000000, 20.000000)">
                        <g id="teaser-3col">
                            <path d="M10.7142857,96.2857143 C12.4888393,96.2857143 14.0039063,95.6579241 15.2594866,94.4023438 C16.515067,93.1467634 17.1428571,91.6316964 17.1428571,89.8571429 C17.1428571,88.0825893 16.5122768,86.5703125 15.2511161,85.3203125 C14.0011161,84.0591518 12.4888393,83.4285714 10.7142857,83.4285714 C8.93973214,83.4285714 7.42466518,84.0563616 6.16908482,85.311942 C4.91350446,86.5675223 4.28571429,88.0825893 4.28571429,89.8571429 C4.28571429,91.6316964 4.91350446,93.1467634 6.16908482,94.4023438 C7.42466518,95.6579241 8.93973214,96.2857143 10.7142857,96.2857143 Z M17.8627232,109.142857 C18.8448661,109.142857 19.6847098,108.707589 20.3822545,107.837054 C21.0797991,106.966518 21.4285714,105.922991 21.4285714,104.706473 C21.4285714,103.757812 21.3811384,102.862165 21.2862723,102.019531 C21.1914062,101.176897 21.015625,100.328683 20.7589286,99.4748884 C20.5022321,98.6210937 20.1757812,97.890067 19.7795759,97.281808 C19.3833705,96.6735491 18.858817,96.1768973 18.2059152,95.7918527 C17.5530134,95.406808 16.8024554,95.2142857 15.9542411,95.2142857 C14.4921875,96.6428571 12.7455357,97.3571429 10.7142857,97.3571429 C8.68303571,97.3571429 6.93638393,96.6428571 5.47433036,95.2142857 C4.62611607,95.2142857 3.87555804,95.406808 3.22265625,95.7918527 C2.56975446,96.1768973 2.04520089,96.6735491 1.64899554,97.281808 C1.25279018,97.890067 0.926339286,98.6210937 0.669642857,99.4748884 C0.412946429,100.328683 0.237165179,101.176897 0.142299107,102.019531 C0.0474330357,102.862165 0,103.757812 0,104.706473 C0,105.922991 0.348772321,106.966518 1.04631696,107.837054 C1.74386161,108.707589 2.58370536,109.142857 3.56584821,109.142857 L3.56584821,109.142857 L17.8627232,109.142857 Z" id=""></path>
                        </g>
                    </g>
                </g>
            </g>
        </g>
    </g>
</svg>