<?xml version="1.0" encoding="UTF-8"?>
<svg width="24px" height="24px" viewBox="0 0 24 24" version="1.1" xmlns="http://www.w3.org/2000/svg" xmlns:xlink="http://www.w3.org/1999/xlink">
    <!-- Generator: Sketch 63.1 (92452) - https://sketch.com -->
    <title></title>
    <desc>Created with Sketch.</desc>
    <g id="Unternehmen" stroke="none" stroke-width="1" fill="none" fill-rule="evenodd">
        <g id="RUZ-Website_Screnndesign_Unternehmen_Team_v1_1440px" transform="translate(-547.000000, -2374.000000)" fill="#1878DE" fill-rule="nonzero">
            <g id="Team" transform="translate(-1.000000, 1498.000000)">
                <g id="Team2" transform="translate(166.000000, 772.000000)">
                    <g id="3col-Block" transform="translate(382.000000, 20.000000)">
                        <g id="teaser-3col">
                            <path d="M17.8962054,108 C18.9229911,108 19.9609375,107.715402 21.0100446,107.146205 C22.1372768,106.521205 22.8180804,105.929688 23.0524554,105.371652 C23.1752232,105.092634 23.2924107,104.710379 23.4040179,104.224888 C23.515625,103.739397 23.5714286,103.345982 23.5714286,103.044643 C23.5714286,102.888393 23.5546875,102.771205 23.5212054,102.69308 C23.4542411,102.492188 23.0301339,102.196429 22.2488839,101.805804 C22.0368304,101.683036 21.7354911,101.515625 21.3448661,101.303571 C20.9542411,101.091518 20.5998884,100.896205 20.281808,100.717634 C19.9637277,100.539062 19.6651786,100.366071 19.3861607,100.198661 C19.3415179,100.165179 19.2020089,100.067522 18.9676339,99.905692 C18.7332589,99.7438616 18.5351562,99.6238839 18.3733259,99.5457589 C18.2114955,99.4676339 18.0524554,99.4285714 17.8962054,99.4285714 C17.6729911,99.4285714 17.3939732,99.5876116 17.0591518,99.905692 C16.7243304,100.223772 16.4174107,100.569754 16.1383929,100.943638 C15.859375,101.317522 15.5636161,101.663504 15.2511161,101.981585 C14.9386161,102.299665 14.6819196,102.458705 14.4810268,102.458705 C14.3805804,102.458705 14.2550223,102.430804 14.1043527,102.375 C13.953683,102.319196 13.8392857,102.271763 13.7611607,102.232701 C13.6830357,102.193638 13.5491071,102.115513 13.359375,101.998326 C13.1696429,101.881138 13.0636161,101.816964 13.0412946,101.805804 C11.5122768,100.957589 10.2008929,99.9866071 9.10714286,98.8928571 C8.01339286,97.7991071 7.04241071,96.4877232 6.19419643,94.9587054 C6.18303571,94.9363839 6.11886161,94.8303571 6.00167411,94.640625 C5.88448661,94.4508929 5.80636161,94.3169643 5.76729911,94.2388393 C5.72823661,94.1607143 5.68080357,94.046317 5.625,93.8956473 C5.56919643,93.7449777 5.54129464,93.6194196 5.54129464,93.5189732 C5.54129464,93.3180804 5.70033482,93.0613839 6.01841518,92.7488839 C6.33649554,92.4363839 6.68247768,92.140625 7.05636161,91.8616071 C7.43024554,91.5825893 7.77622768,91.2756696 8.09430804,90.9408482 C8.41238839,90.6060268 8.57142857,90.3270089 8.57142857,90.1037946 C8.57142857,89.9475446 8.53236607,89.7885045 8.45424107,89.6266741 C8.37611607,89.4648438 8.25613839,89.2667411 8.09430804,89.0323661 C7.93247768,88.7979911 7.83482143,88.6584821 7.80133929,88.6138393 C7.63392857,88.3348214 7.4609375,88.0362723 7.28236607,87.718192 C7.10379464,87.4001116 6.90848214,87.0457589 6.69642857,86.6551339 C6.484375,86.2645089 6.31696429,85.9631696 6.19419643,85.7511161 C5.80357143,84.9698661 5.5078125,84.5457589 5.30691964,84.4787946 C5.22879464,84.4453125 5.11160714,84.4285714 4.95535714,84.4285714 C4.65401786,84.4285714 4.26060268,84.484375 3.77511161,84.5959821 C3.28962054,84.7075893 2.90736607,84.8247768 2.62834821,84.9475446 C2.0703125,85.1819196 1.47879464,85.8627232 0.853794643,86.9899554 C0.284598214,88.0390625 0,89.0770089 0,90.1037946 C0,90.4051339 0.01953125,90.7008929 0.05859375,90.9910714 C0.09765625,91.28125 0.167410714,91.6021205 0.267857143,91.953683 C0.368303571,92.3052455 0.44921875,92.5675223 0.510602679,92.7405134 C0.571986607,92.9135045 0.686383929,93.2232143 0.853794643,93.6696429 C1.02120536,94.1160714 1.12165179,94.3895089 1.15513393,94.4899554 C1.54575893,95.5837054 2.00892857,96.5602679 2.54464286,97.4196429 C3.42633929,98.8370536 4.63169643,100.310268 6.16071429,101.839286 C7.68973214,103.368304 9.16294643,104.573661 10.5803571,105.455357 C11.4397321,105.991071 12.4162946,106.454241 13.5100446,106.844866 C13.6104911,106.878348 13.8839286,106.978795 14.3303571,107.146205 C14.7767857,107.313616 15.0864955,107.428013 15.2594866,107.489397 C15.4324777,107.550781 15.6947545,107.631696 16.046317,107.732143 C16.3978795,107.832589 16.71875,107.902344 17.0089286,107.941406 C17.2991071,107.980469 17.5948661,108 17.8962054,108 Z" id=""></path>
                        </g>
                    </g>
                </g>
            </g>
        </g>
    </g>
</svg>